<?xml version="1.0" encoding="utf-8"?>
<!-- Generator: Adobe Illustrator 15.0.0, SVG Export Plug-In  -->
<!DOCTYPE svg PUBLIC "-//W3C//DTD SVG 1.1//EN" "http://www.w3.org/Graphics/SVG/1.1/DTD/svg11.dtd" [
	<!ENTITY ns_flows "http://ns.adobe.com/Flows/1.0/">
]>
<svg version="1.1"
	 xmlns="http://www.w3.org/2000/svg" xmlns:xlink="http://www.w3.org/1999/xlink" xmlns:a="http://ns.adobe.com/AdobeSVGViewerExtensions/3.0/"
	 x="0px" y="0px" width="47px" height="47px" viewBox="0 0 47 47" style="overflow:visible;enable-background:new 0 0 47 47;"
	 xml:space="preserve">
<style type="text/css">
<![CDATA[
	.st0{fill:#2C3E50;}
]]>
</style>
<defs>
</defs>
<path class="st0" d="M39.5,27.6c1.8-1.7,4-3.7,4.1-3.8c0.3-0.2,0.5-0.4,0.2-0.7c0,0,0,0,0,0c0,0,0,0,0,0c-0.2-0.2-0.4,0-0.7,0.2
	c-0.1,0.1-2.1,2.4-3.8,4.2C39.3,27.6,39.4,27.6,39.5,27.6z"/>
<path class="st0" d="M41.1,20.4C41.1,20.4,41.1,20.4,41.1,20.4C41.1,20.4,41.1,20.4,41.1,20.4c-0.3-0.1-0.4,0.1-0.6,0.5
	c0,0.1-1.4,3.8-2.3,6.2c0.1,0,0.1,0,0.2,0.1c1-2.3,2.7-5.8,2.8-6C41.3,20.8,41.4,20.6,41.1,20.4z"/>
<path class="st0" d="M33.3,20.4C33.3,20.4,33.3,20.4,33.3,20.4C33.3,20.4,33.3,20.4,33.3,20.4c-0.3,0.1-0.2,0.4,0,0.7
	c0.1,0.1,1.7,3.6,2.7,5.9c0.1,0,0.1,0,0.2-0.1c-0.9-2.3-2.3-6-2.3-6.1C33.7,20.6,33.6,20.3,33.3,20.4z"/>
<path class="st0" d="M30.6,23.1C30.6,23.1,30.6,23.1,30.6,23.1C30.6,23.1,30.6,23.1,30.6,23.1c-0.2,0.2,0,0.5,0.2,0.7
	c0.1,0.1,2.3,2,4,3.7c0.1,0,0.1-0.1,0.2-0.1c-1.7-1.8-3.6-3.9-3.7-4C31,23.1,30.8,22.9,30.6,23.1z"/>
<path class="st0" d="M18.8,29.6c-0.7,0.2-1.5,0.1-2.3,0.1c-0.3,0.5-1,0.9-1,1.5l7,0l0.1-1.3l-1.9-0.1C20.1,29.6,19.5,29.6,18.8,29.6
	z"/>
<path class="st0" d="M37.2,19.3C37.2,19.3,37.2,19.3,37.2,19.3C37.2,19.3,37.2,19.3,37.2,19.3c-0.3,0-0.4,0.3-0.3,0.7
	c0,0.1,0.2,4.4,0.2,7c0.1,0,0.1,0,0.2,0c0.1-2.5,0.2-6.8,0.2-7C37.6,19.6,37.6,19.3,37.2,19.3z"/>
<path class="st0" d="M45,13.9c-2.5-5.8-8.3-11-14.2-12.7C24.9-1,17.4-0.1,12.1,3C7,5.7,2.8,11,1.1,16.2c-1.9,5.5-1.3,12.5,1.2,17.5
	c3.1,6.6,10,11.7,16.9,12.9c1.8,0.3,3.7,0.5,5.6,0.4c2.8-0.1,5.3-0.7,7.7-1.7c5.4-2,10.6-7.2,12.7-12.5C47.8,27.2,47.7,19.3,45,13.9
	z M11.7,39.4c0,0.1-0.1,0.1-0.1,0.2c-0.1,0.1-0.3,0.2-0.6,0.2l-0.6-0.4c0,0,0,0,0,0c0,0-0.1-0.1-0.1-0.1c0,0-0.1-0.1-0.1-0.1
	c0-0.1,0-0.2,0-0.3c0.1-0.5,0.7-0.7,0.8-1.2c0.2,0,0.3,0.2,0.4,0.4C11.7,38.4,11.8,38.9,11.7,39.4z M27.2,7.1
	c-0.5-0.4-0.9-0.8-1.5-0.9c-1.5-0.2-3,0-4.3,0.6c-0.7,0.4-1.5,0.8-1.9,1.6c-0.3,0.6-0.7,1.1-1,1.7c-0.6,0.4-1.2,0.6-1.8,1
	c-0.3,0.2-0.5,0.5-0.5,0.9c0,0.2,0.1,0.5,0.3,0.6c0.2,0.1,0.3,0.1,0.4,0.2c0.2,0.4,0.3,0.9,0.3,1.3c0.2,0.5,0.8,0.5,0.9,1
	c0.1,0.4,0.2,0.8,0.2,1.2c0,0.1,0.1,0.2,0.2,0.2c0.5,0,0.9-0.1,1.2-0.5c0.2-0.3,0.3-0.7,0.3-1.2c0.3-0.3,0.6-0.7,0.8-1v0
	c0.2-0.3,0.6-0.2,0.7-0.2c0,0.2-0.1,0.6-0.1,0.8c0,0.1-0.1,0.4-0.1,0.6l0,0c0,0,0,0,0,0c0,0,0,0,0,0c0.1,0.2,0.2,0.4,0.4,0.6
	c0.1,0.1,0.3,0.1,0.4,0.1c0.1,0,0.1,0,0.1,0c0.1,0,0.1,0,0.2,0c0.3,0,0.2-0.2,0.4-0.4c0.1-0.1,0.1-0.2,0.2-0.4c0.1-0.2,0-0.3,0-0.4
	c0.2-0.3,0.4-0.6,0.7-1C24,13.3,24,13,24,12.7c0.1-0.1,0.3-0.1,0.4-0.2l0.3-0.1c0.3,0.5,0.9,0.6,1.4,0.7c0.3,0.4-0.3,0.8,0,1.2
	c0,0.1,0.2,0.2,0.3,0.3c-0.2,0.5-0.4,1.1-1,1.4c0,0,0,0,0,0c0,0,0,0,0,0c0,0,0,0-0.1,0c0,0-0.1,0-0.1,0c0,0,0,0,0,0
	c-0.8-0.3-0.9-1.2-1.2-1.9c-0.3,0.2-0.1,0.7-0.3,1c-0.3,0.3-0.4,0.8-0.8,0.8c-0.4,0.2-0.9,0.1-1.3-0.2c0.2,0.9,0.5,1.8,0.9,2.7
	c0.7,1.3,0.7,2.9,0.8,4.5l-0.1,5.9l-0.9,9.3c-0.2,0.7-0.3,1.4-0.4,2.1l-0.2,1.3c-1.9,0.3-3.5-0.5-5.2-0.7c-0.7-0.1-1.4-0.1-2.1-0.1
	c0,0,0-0.1,0-0.1c0-0.2,0-0.4,0-0.5c0-0.1,0-0.2,0-0.3c0-0.1,0-0.1,0-0.2c0-0.3,0.1-0.6,0.1-0.9c0.1-0.6,0.1-1.1,0-1.7
	c0-0.3-0.1-0.5-0.2-0.7c-0.1-0.2-0.1-0.4-0.2-0.6c-0.1-0.5-0.3-1-0.3-1.5c-0.1-0.5,0.2-0.9,0.4-1.4c0.2-0.3,0.6-1.4,1.1-2.6
	c0,0,0,0,0.1-0.1c0.3-0.3,0.4-0.5,1.3-1.4c0.2-0.2,0.9-0.3,1-0.5c0.4-0.6,1.4-2.3,1.8-3.1c0.1,0,0.1,0,0.2-0.1
	c0.2-0.1,0.3-0.2,0.5-0.3c0.2-0.2,0.5-0.2,0.4-0.8c0-0.2,0-0.3-0.4-0.5c-0.2-0.1-0.4-0.2-0.6-0.2c-0.1,0-0.4,0.1-0.7,0.2
	c-0.3,0.1-0.5,0.3-0.6,0.4c-0.2,0.2-0.7,0.5-0.9,0.8c0,0-0.1,0-0.2,0c0,0,0,0,0-0.1c-0.1-0.7-0.3-1.5-0.1-2.1
	c0.3-0.7,0.7-1.1,0.9-2.7c0.2,0,0.2-0.2,0.4-0.4c0.1-0.2,0.4-0.4,0.4-0.6c0-0.7-0.1-1.2-0.4-1.8c0,0-0.2,0-0.2,0.1
	c-0.4,0.3-0.6,0.4-1,0.8c-0.8,0.7-1.1,0.1-1.7,0.4c-0.4,0.2-0.8,0.5-1.2,1.1c-0.4,0.3-0.3,0.2-0.7,0.1c-0.3,0-0.5-0.2-0.8-0.3
	c-0.4-0.1-0.5,0.2-0.6,0.5c-0.1,0.2,0.3,0.6,0.5,0.9c0.3,0.5,0.3,0.6,0.4,0.7c0.1,0.4,0,0.4-0.1,1c-0.1,0.2-0.1,0.4-0.2,0.6
	c0,0,0,0,0,0c0,0,0,0,0,0c-0.2,0.1-1.2,0.9-1.6,1.3c-0.4,0.4-1.8,2.7-2.1,3.5c-0.2,0.5-0.9,2.5-0.9,2.5C7.7,31,7.3,32.4,7,33.4
	c0,0.1-0.1,0.2-0.1,0.2c-0.2,0.8-0.1,1.8,0,2.6c-1.2-1.6-2.2-3.3-2.9-5l3,0c0.3-0.7,0.4-1.4,0.7-2c-0.9-0.3-1.6,0.3-2.4,0.1
	c-0.6-0.3-1.3-0.3-2-0.3c-2.3-8.8,1-17.6,8.5-22.8c2.3-1.6,4.9-2.7,7.6-3.2c0,1,0.2,1.8,0.8,2.5c0.1,0.4,0.4,0.8,0.4,1.3
	c0.5-0.3,1.1-0.6,1.7-0.8V5.9c-0.2-0.3-0.4-0.7-0.7-0.9c-0.1-0.8-0.3-1.5-0.4-2.4c2.5-0.3,5.2-0.1,7.5,0.5c-0.2,1.2-0.7,2.3-1.3,3.3
	C27.3,6.7,27.3,6.9,27.2,7.1z M43.8,29.4c-1.3,0.2-2.8,0.3-3.6-0.9c-1.1-1-2.6-1.7-4.1-1.1c-0.9,0-1.4,1.1-2.2,1.4
	c-0.3,0.1-0.7,0.1-0.9,0.4c-0.7,0.4-1.6,0.3-2.5,0.4l-1.6,0.2c-0.1,0-0.1-0.1-0.2,0c0,0.4,0,1,0,1.4h14.4c-0.9,2.3-2.2,4.5-4,6.4
	c-0.4,0.2-0.9,0.3-1.2,0.6c-0.7,0.5-1.3,1.1-2.2,1.2c-1.2,0-2.4,0.2-3.3,0.8c-1,0.5-2.1,0.9-3.2,1.1c-0.2-0.4-0.3-0.8-0.4-1.2
	c-0.8-3.3-0.5-7-0.6-10.5c0-1.4,0.4-2.7,1.6-3.6l0.3-0.3l-0.4-1.9c-0.4,0-0.7,0.3-1.1,0.4c-0.2,0-0.4-0.1-0.5-0.1
	c-0.2-1.1-0.3-2.3-0.3-3.5c0.2-1.1,1.2-1.9,1.5-3c0.1-1.1,0.2-3,0.4-4.4l0.2-5.9c0.2-0.8,0.3-1.5,0.7-2.2c0.1-0.4,0.1-0.9,0.2-1.3
	c5.2,1.8,10.4,6.8,12.4,12C44.8,19.7,45.1,25.1,43.8,29.4z M39.8,29.1c-1-0.1-1.6,0.8-2.6,0.7c-0.5,0.1-0.8-0.1-1.2-0.3
	c-0.4-0.1-0.8-0.1-1.2-0.2c-0.2-0.5,0.5-0.7,0.7-1c0.9-0.3,2.2-0.5,3.1,0C39.1,28.5,39.4,28.8,39.8,29.1z"/>
</svg>
