<?xml version="1.0" encoding="utf-8"?>
<!-- Generator: Adobe Illustrator 15.0.0, SVG Export Plug-In  -->
<!DOCTYPE svg PUBLIC "-//W3C//DTD SVG 1.1//EN" "http://www.w3.org/Graphics/SVG/1.1/DTD/svg11.dtd" [
	<!ENTITY ns_flows "http://ns.adobe.com/Flows/1.0/">
]>
<svg version="1.1"
	 xmlns="http://www.w3.org/2000/svg" xmlns:xlink="http://www.w3.org/1999/xlink" xmlns:a="http://ns.adobe.com/AdobeSVGViewerExtensions/3.0/"
	 x="0px" y="0px" width="189px" height="114px" viewBox="3.5 5.5 189 114"
	 overflow="visible" enable-background="new 3.5 5.5 189 114" xml:space="preserve">
<defs>
</defs>
<g>
	<path fill="#FFFFFF" d="M97.888,116.234C47.219,118.026,7.357,103.53,6.163,70.83C5.014,38.15,45.13,10.185,95.794,8.373
		c50.673-1.836,92.713,23.206,93.864,55.903C190.828,96.963,148.547,114.401,97.888,116.234z"/>
	<g>
		<path fill="none" d="M97.888,116.234C47.219,118.026,7.357,103.53,6.163,70.83C5.014,38.15,45.13,10.185,95.794,8.373
			c50.673-1.836,92.713,23.206,93.864,55.903C190.828,96.963,148.547,114.401,97.888,116.234z"/>
		<g>
			<path fill="#005596" d="M85.717,113.784c0.835,0.023,1.136,0.031,2.229,0.183c7.521,0.643,18.813,2.272,0.434,4.725
				c-0.339,0.031-1.944,0.133-2.758,0.132c-0.897-0.742-23.14,2.021-53.081-10.021c-7.232-3.373-14.955-8.07-20.828-15.544
				c-5.86-7.471-8.797-17.727-7.86-27.911c2.151-21.11,19.807-37.372,38.181-46.418c37.96-18.623,82.685-15.584,110.956-2.666
				c14.346,6.345,24.546,15.333,30,22.874c5.521,7.571,6.841,13.021,6.9,12.948c-0.545-0.582,6.913,14.65-3.128,31.905
				c-10.212,16.777-33.335,25.246-51.308,28.805c-31.257,5.56-40.927,3.118-37.582,3.085c3.241-0.665,19.355-1.409,38.15-6.074
				c-2.445,0.03,21.922-3.382,39.511-18.834c8.806-7.59,12.71-19.062,11.666-27.562c-0.691-8.541-3.744-13.69-3.673-13.664
				c0.403,0.494-7.794-19.394-36.043-30.374C120.628,8.238,77.648,6.066,42.322,24.423C25.171,33.302,9.736,48.931,8.753,67.176
				c-0.358,8.86,2.164,17.531,7.56,23.732c5.267,6.293,12.211,10.526,18.935,13.559C63.135,115.582,84.915,113.122,85.717,113.784z"
				/>
		</g>
	</g>
</g>
<path fill="none" d="M83.987,26.502c-1.371,3.44-4.216,5.543-6.354,4.691c-2.139-0.851-2.763-4.333-1.394-7.773
	c1.371-3.443,4.217-5.544,6.355-4.695C84.731,19.577,85.358,23.06,83.987,26.502z"/>
<path fill="#A30046" d="M82.496,26.767c0.025-0.05,0.034-0.066,0.123-0.107c0.501-0.255,1.724-0.793,2.124,0.978
	c0.007,0.032,0.01,0.179-0.01,0.244c-0.085,0.045-0.655,1.768-2.782,3.492c-1.019,0.772-2.817,1.766-4.887,0.929
	c-2.038-0.929-2.692-3.097-2.776-4.768c-0.146-3.528,1.477-6.644,3.367-8.448c1.88-1.945,4.369-1.838,4.31-1.765
	c-0.078-0.013,1.651,0.129,2.661,1.689c0.994,1.48,0.992,3.46,0.633,4.87c-0.62,2.412-1.366,2.845-1.436,2.556
	c-0.149-0.314,0.099-1.457,0.069-2.787c-0.05,0.171,0.095-1.547-0.594-2.777c-0.67-1.312-1.766-1.09-1.756-1.075
	c0.055,0.001-0.975-0.112-2.354,1.265c-1.313,1.29-2.6,3.954-2.403,6.465c0.168,2.814,2.142,3.188,3.677,1.838
	C81.923,28.188,82.452,26.791,82.496,26.767z"/>
<path fill="none" d="M56.711,35.872c-0.61,2.688-2.665,4.513-4.589,4.074c-1.924-0.435-2.987-2.97-2.375-5.661
	c0.609-2.688,2.665-4.512,4.587-4.077C56.258,30.648,57.321,33.183,56.711,35.872z"/>
<path fill="#005596" d="M55.662,36.259c0.012-0.038,0.016-0.054,0.073-0.094c0.343-0.249,1.193-0.829,1.601,0.475
	c0.007,0.024,0.026,0.139,0.017,0.19c-0.028,0.045-0.349,1.468-1.892,2.95c-0.772,0.679-2.108,1.396-3.613,1.01
	c-1.499-0.385-2.497-1.752-2.866-3.049c-0.764-2.679,0.163-5.402,1.569-6.899c1.39-1.625,3.249-1.604,3.185-1.566
	c-0.035,0.012,1.134-0.043,2.128,0.873c1.007,0.87,1.453,2.379,1.403,3.521c-0.07,1.957-0.626,2.385-0.678,2.175
	c-0.149-0.224-0.083-1.131-0.312-2.135c-0.018,0.14-0.152-1.192-0.95-1.991c-0.752-0.886-1.776-0.682-1.754-0.658
	c0.028,0.025-0.857-0.016-1.837,1.116c-0.938,1.067-1.647,3.289-1.02,5.147c0.574,2.042,2.542,2.199,3.599,1.095
	C55.349,37.387,55.661,36.297,55.662,36.259z"/>
<path fill="none" d="M28.849,45.58c7.319,1.035,22.005,1.404,35.678-2.867c0,0,27.792-8.047,42.459-25.031"/>
<path fill="#00AE9E" d="M30.953,46.996c-0.157-0.017-0.214-0.022-0.411-0.098c-1.412-0.495-3.244-1.58,0.149-2.166
	c0.063-0.012,0.354-0.049,0.497-0.045c0.297,0.097,15.451,1.649,29.818-2.185c14.359-3.77,27.232-11.379,27.165-11.366
	c0.01,0.039,8.433-4.605,13.6-8.972c4.359-3.695,5.521-5.027,5.336-4.377c-0.234,0.588-2.02,2.988-4.648,5.479
	c0.303-0.232-2.84,2.765-6.419,5.363c-3.551,2.637-7.441,4.932-7.444,4.926c0.022-0.005-12.855,7.539-27.416,11.291
	C46.55,48.663,31.321,47.097,30.953,46.996z"/>
<path fill="none" d="M36.564,77.213c-0.809-0.013,0.868-4.551,1.077-5.22c0.18-0.535,2.666-8.072,2.874-9.533
	c0.539-3.253,1.432-7.425-0.184-9.139c0,0-0.347-1.271-1.992-0.057"/>
<path fill="#FDB913" d="M37.602,76.678c-0.002,0.024-0.002,0.034-0.066,0.067c-0.052,0.187-0.729-0.336-0.969,0.179
	c-0.003,0.187,0.125,0.461-0.149,0.636c-0.458,0.201-0.983-0.361-1.22-0.796c-0.02-0.026-0.083-0.166-0.091-0.236
	c-0.188-0.556,1.419-5.049,2.837-9.531c1.608-4.468,1.967-8.943,1.981-8.963c-0.067-0.046,0.816-2.817-0.193-4.59
	c0.061-0.336-0.717-0.292-1.003-0.179c-0.345,0.053-0.504,0.013-0.495-0.141c0.023-0.142,0.181-0.424,0.58-0.717
	c0.237-0.329,1.58-0.607,2.17,0.46c-0.459-0.604,1.167,1.121,1.23,2.639c0.273,1.561,0.147,3.036,0.164,3.04
	c0.009-0.057-0.485,4.882-2.094,9.319C38.838,72.358,37.322,76.852,37.602,76.678z"/>
<path fill="none" d="M57.791,74.087c-0.623,0.085-0.044-1.691,0.018-1.984c0.053-0.419,4.868-16.353,4.868-16.353
	s2.938-8.798-0.991-8.465c-1.197,0.227-1.231,0.533-2.005,1.074c-2.213,1.612-6.349,5.888-10.512,25.125
	c-0.25,0.992-0.546,0.99-0.546,0.99"/>
<path fill="#007161" d="M58.786,72.966c-0.021,0.092-0.037,0.131-0.11,0.229c-0.121,0.172-0.271,0.404-0.396,0.461
	c-0.067,0.123-0.536-0.174-0.524,0.164c0.044,0.15,0.296,0.441-0.181,0.572c-0.706-0.01-0.941-0.966-1.038-1.562
	c-0.009-0.058-0.025-0.302-0.005-0.412c-0.086-0.354,3.287-10.552,5.872-20.406c0.187-1.172,0.263-2.512-0.03-3.218
	c-0.074-0.525-0.763-0.418-1.387,0.01c-2.02,1.377-3.109,3.001-4.08,4.676c-1.809,3.293-2.571,5.786-2.596,5.762
	c-0.059-0.031-2.414,6.239-3.786,10.809c-0.603,1.936-0.934,3.166-1.306,3.91c-0.437,0.827-0.891,0.421-0.595,0.351
	c0.067-0.065,0.228-2.258,0.691-4.715c-0.352,0.475,2.766-11.754,3.034-11.71c0.042,0.013,0.797-2.49,2.805-5.996
	c0.973-1.72,2.609-3.771,4.807-5.199c0.405-0.263,0.845-0.396,1.196-0.477l0.272-0.062c0.328-0.05,0.297-0.009,0.462-0.014
	c0.243,0.009,0.486,0.029,0.725,0.059c1.146,0.268,1.847,1.341,2.043,2.135c0.412,1.637,0.189,2.999-0.025,4.353
	C61.909,62.915,58.695,72.683,58.786,72.966z"/>
<path fill="none" d="M88.72,36.613c-6.06,7.818-6.665,8.046-17.331,35.182c0,0-1.1,2.555-1.728,2.659"/>
<path fill="#A30046" d="M87.052,36.722c0.048-0.06,0.064-0.082,0.175-0.125c0.704-0.33,2.041-0.571,1.871,1.401
	c-0.003,0.037-0.036,0.193-0.07,0.258c-0.135,0.238-4.942,5.752-7.721,12.595c-3.011,6.725-5.665,13.625-5.685,13.611
	c-0.002-0.002-2.015,4.367-3.603,7.365c-1.311,2.724-2.728,2.923-2.387,2.453c0.034-0.154,0.661-1.434,1.144-3.06
	c-0.191,0.323,2.678-8.068,2.689-8.066c0.024,0.004,2.626-6.78,5.656-13.523C81.956,42.69,87.023,36.816,87.052,36.722z"/>
<path fill="#00AE9E" d="M106.236,40.317h-0.797v-0.648h-0.021c-0.408,0.52-0.959,0.779-1.617,0.779
	c-1.375,0-2.242-1.168-2.242-2.467c0-1.337,0.848-2.483,2.254-2.483c0.637,0,1.215,0.298,1.605,0.797h0.021v-0.668h0.797V40.317z
	 M102.373,37.923c0,0.917,0.541,1.785,1.539,1.785c1.029,0,1.564-0.828,1.564-1.775c0-0.938-0.59-1.697-1.576-1.697
	C102.973,36.235,102.373,37.045,102.373,37.923z"/>
<path fill="#00AE9E" d="M110.807,36.137h0.021c0.25-0.391,0.646-0.639,1.127-0.639c0.547,0,1.047,0.287,1.297,0.777
	c0.281-0.518,0.838-0.777,1.406-0.777c1.199,0,1.498,0.979,1.498,1.965v2.854h-0.801v-2.725c0-0.607-0.039-1.357-0.855-1.357
	c-0.92,0-1.02,0.889-1.02,1.598v2.484h-0.797v-2.664c0-0.579-0.068-1.418-0.838-1.418c-0.939,0-1.039,0.949-1.039,1.657v2.425
	h-0.797v-4.69h0.797V36.137z"/>
<path fill="#00AE9E" d="M120.367,38.141c0.01,0.869,0.627,1.567,1.537,1.567c0.678,0,1.119-0.407,1.426-0.969l0.682,0.391
	c-0.449,0.837-1.209,1.318-2.168,1.318c-1.395,0-2.295-1.068-2.295-2.415c0-1.389,0.809-2.535,2.275-2.535
	c1.506,0,2.307,1.246,2.225,2.643H120.367z M123.213,37.463c-0.113-0.677-0.68-1.228-1.379-1.228c-0.688,0-1.326,0.551-1.426,1.228
	H123.213z"/>
<path fill="#00AE9E" d="M128.201,36.137h0.02c0.279-0.37,0.52-0.639,1.037-0.639c0.273,0,0.49,0.089,0.721,0.219l-0.383,0.729
	c-0.158-0.111-0.266-0.211-0.475-0.211c-0.879,0-0.92,1.127-0.92,1.736v2.346H127.4v-4.69h0.801V36.137z"/>
<path fill="#00AE9E" d="M134.199,33.86c0,0.319-0.26,0.57-0.566,0.57c-0.312,0-0.57-0.251-0.57-0.57c0-0.312,0.258-0.569,0.57-0.569
	C133.939,33.291,134.199,33.549,134.199,33.86z M134.029,40.317h-0.799v-4.69h0.799V40.317z"/>
<path fill="#00AE9E" d="M141.475,37.024h-0.021c-0.369-0.47-0.826-0.789-1.455-0.789c-0.967,0-1.658,0.799-1.658,1.736
	c0,0.929,0.641,1.736,1.615,1.736c0.672,0,1.141-0.298,1.527-0.808h0.02v1.066c-0.457,0.311-0.928,0.481-1.484,0.481
	c-1.416,0-2.498-1.059-2.498-2.477c0-1.397,1.129-2.474,2.51-2.474c0.506,0,1.025,0.17,1.445,0.47V37.024z"/>
<path fill="#00AE9E" d="M149.316,40.317h-0.795v-0.648h-0.02c-0.412,0.52-0.961,0.779-1.621,0.779c-1.375,0-2.242-1.168-2.242-2.467
	c0-1.337,0.848-2.483,2.254-2.483c0.639,0,1.219,0.298,1.609,0.797h0.02v-0.668h0.795V40.317z M145.457,37.923
	c0,0.917,0.537,1.785,1.537,1.785c1.025,0,1.564-0.828,1.564-1.775c0-0.938-0.59-1.697-1.574-1.697
	C146.055,36.235,145.457,37.045,145.457,37.923z"/>
<path fill="#00AE9E" d="M153.889,36.195h0.02c0.328-0.449,0.758-0.697,1.338-0.697c1.299,0,1.596,0.937,1.596,2.033v2.786h-0.797
	v-2.645c0-0.758-0.061-1.438-0.99-1.438c-1.096,0-1.166,1.019-1.166,1.856v2.226h-0.799v-4.69h0.799V36.195z"/>
<path fill="#00AE9E" d="M99.25,71.911h-0.795v-0.649h-0.021c-0.407,0.521-0.957,0.779-1.613,0.779c-1.382,0-2.247-1.167-2.247-2.466
	c0-1.335,0.847-2.485,2.256-2.485c0.639,0,1.217,0.3,1.604,0.8h0.021v-0.668h0.795V71.911z M95.389,69.517
	c0,0.916,0.54,1.786,1.537,1.786c1.027,0,1.568-0.829,1.568-1.776c0-0.938-0.588-1.696-1.579-1.696
	C95.989,67.83,95.389,68.639,95.389,69.517z"/>
<path fill="#00AE9E" d="M104.922,68.311c-0.111-0.25-0.35-0.48-0.639-0.48c-0.281,0-0.58,0.22-0.58,0.52
	c0,0.429,0.539,0.586,1.088,0.818c0.549,0.229,1.088,0.56,1.088,1.349c0,0.884-0.719,1.524-1.586,1.524
	c-0.787,0-1.408-0.449-1.656-1.188l0.707-0.3c0.199,0.439,0.43,0.749,0.959,0.749c0.428,0,0.756-0.287,0.756-0.718
	c0-1.048-2.113-0.689-2.113-2.166c0-0.787,0.635-1.329,1.396-1.329c0.539,0,1.039,0.382,1.246,0.87L104.922,68.311z"/>
<path fill="#00AE9E" d="M111.199,68.311c-0.111-0.25-0.35-0.48-0.641-0.48c-0.279,0-0.578,0.22-0.578,0.52
	c0,0.429,0.539,0.586,1.086,0.818c0.551,0.229,1.088,0.56,1.088,1.349c0,0.884-0.717,1.524-1.586,1.524
	c-0.787,0-1.406-0.449-1.656-1.188l0.709-0.3c0.201,0.439,0.43,0.749,0.959,0.749c0.428,0,0.76-0.287,0.76-0.718
	c0-1.048-2.119-0.689-2.119-2.166c0-0.787,0.641-1.329,1.396-1.329c0.541,0,1.039,0.382,1.25,0.87L111.199,68.311z"/>
<path fill="#00AE9E" d="M115.16,69.575c0-1.376,1.088-2.485,2.465-2.485c1.375,0,2.463,1.109,2.463,2.485
	c0,1.377-1.096,2.466-2.463,2.466C116.256,72.041,115.16,70.952,115.16,69.575z M115.959,69.565c0,0.958,0.678,1.737,1.666,1.737
	s1.666-0.779,1.666-1.737c0-0.947-0.678-1.735-1.666-1.735S115.959,68.618,115.959,69.565z"/>
<path fill="#00AE9E" d="M126.967,68.618h-0.02c-0.371-0.468-0.83-0.788-1.459-0.788c-0.969,0-1.656,0.798-1.656,1.735
	c0,0.931,0.639,1.737,1.615,1.737c0.67,0,1.139-0.3,1.527-0.807h0.021v1.066c-0.461,0.308-0.928,0.479-1.488,0.479
	c-1.416,0-2.494-1.059-2.494-2.476c0-1.396,1.129-2.476,2.504-2.476c0.51,0,1.029,0.173,1.449,0.472V68.618z"/>
<path fill="#00AE9E" d="M131.646,65.454c0,0.319-0.26,0.569-0.57,0.569c-0.307,0-0.568-0.25-0.568-0.569
	c0-0.308,0.262-0.568,0.568-0.568C131.387,64.886,131.646,65.146,131.646,65.454z M131.475,71.911h-0.795v-4.689h0.795V71.911z"/>
<path fill="#00AE9E" d="M139.719,71.911h-0.799v-0.649h-0.018c-0.408,0.521-0.959,0.779-1.615,0.779c-1.381,0-2.25-1.167-2.25-2.466
	c0-1.335,0.85-2.485,2.256-2.485c0.641,0,1.221,0.3,1.609,0.8h0.018v-0.668h0.799V71.911z M135.857,69.517
	c0,0.916,0.539,1.786,1.537,1.786c1.025,0,1.566-0.829,1.566-1.776c0-0.938-0.588-1.696-1.576-1.696
	C136.457,67.83,135.857,68.639,135.857,69.517z"/>
<path fill="#00AE9E" d="M144.33,71.911h-0.799V67.96h-0.488v-0.738h0.488v-1.688h0.799v1.688h0.838v0.738h-0.838V71.911z"/>
<path fill="#00AE9E" d="M149.301,65.454c0,0.319-0.262,0.569-0.568,0.569c-0.311,0-0.57-0.25-0.57-0.569
	c0-0.308,0.26-0.568,0.57-0.568C149.039,64.886,149.301,65.146,149.301,65.454z M149.131,71.911h-0.799v-4.689h0.799V71.911z"/>
<path fill="#00AE9E" d="M152.672,69.575c0-1.376,1.09-2.485,2.465-2.485c1.379,0,2.465,1.109,2.465,2.485
	c0,1.377-1.096,2.466-2.465,2.466C153.771,72.041,152.672,70.952,152.672,69.575z M153.471,69.565c0,0.958,0.68,1.737,1.666,1.737
	c0.988,0,1.668-0.779,1.668-1.737c0-0.947-0.68-1.735-1.668-1.735C154.15,67.83,153.471,68.618,153.471,69.565z"/>
<path fill="#00AE9E" d="M161.795,67.792h0.02c0.332-0.451,0.758-0.702,1.338-0.702c1.297,0,1.594,0.941,1.594,2.039v2.782h-0.795
	v-2.646c0-0.756-0.062-1.436-0.988-1.436c-1.098,0-1.168,1.018-1.168,1.856v2.225h-0.799v-4.689h0.799V67.792z"/>
<path fill="#005596" d="M169.924,49.261c-0.727-0.617-2.916-2.101-5.312-2.101c-2.393-0.002-11.877,1.721-12.295,1.843
	c-0.414,0.124-0.727,0.495-0.83,0.99c-0.109,0.491-0.734,0.737-0.734,1.107s-0.311,1.111-0.627,1.481
	c-0.311,0.369-1.355,2.72-1.666,2.964c-0.314,0.245-0.834-0.247-0.938-0.987c-0.102-0.744-0.311-3.338-0.725-3.708
	c-0.418-0.371-1.25-0.989-1.873-0.617c-0.629,0.37-3.236,3.576-3.652,4.071c-0.416,0.492-1.668,2.221-2.395,2.47
	c-0.734,0.246-1.359,0.368-1.879-0.249c-0.52-0.62-2.604-2.35-4.475-6.797c-0.311-1.109-1.039-1.358-1.455-1.358
	c-0.42,0-0.941,1.235-0.941,1.235s0.105,1.11-0.52,1.11c-0.625-0.002-3.127,0.616-3.857,0.614c-0.732,0-1.258,0.494-1.781,0
	c-0.52-0.496-2.494-3.092-2.494-3.092s-2.084-3.211-2.5-3.582c-0.418-0.369-1.25-1.606-1.666-1.235
	c-0.418,0.371-2.088,3.828-2.088,3.828s-2.191,3.703-2.504,3.949c-0.311,0.247-0.623,0.987-1.252,1.109
	c-0.623,0.125-5.834,1.603-6.562,1.848c-0.734,0.248-3.963,2.096-4.484,2.22c-0.52,0.123-4.69,0.984-5.417,1.479
	c-0.731,0.492-2.503,0.738-3.024,0.49c-0.521-0.245-0.934-0.74-0.521-1.232c0.417-0.494,1.358-1.852,2.087-2.101
	c0.727-0.246,3.648-2.468,3.961-2.712c0.312-0.249,2.605-1.11,3.23-1.356c0.623-0.247,4.377-2.222,5.104-2.468
	c0.732-0.245,2.4-0.738,2.92-0.86c0.527-0.124,0.941-0.738,0.732-1.111c-0.205-0.37-0.939-0.619-0.939-0.619
	s-0.104-0.492-0.414-0.616c-0.701-0.28-8.338,3.079-9.693,3.946c-1.355,0.861-8.549,5.301-9.172,6.906
	c-0.627,1.607-0.421,2.964,0.205,3.336c0.626,0.369,1.978,1.357,4.064,1.236c2.081-0.121,8.228-2.093,13.65-4.561
	c0.83-0.366,1.559,0,1.559,0s0.318,0.129,0.109,0.621c-0.215,0.493-0.939,1.357-0.941,1.85c-0.002,0.495,0.52,0.743,0.83,0.99
	c0.316,0.245,1.258,0.74,1.672,0.494c0.42-0.249,1.254-2.345,1.463-2.716c0.207-0.372,0.729-1.604,1.248-1.728
	c0.521-0.122,5.004-0.86,5.42-0.736s2.604-0.37,2.604-0.37s0.625-0.123,0.832,0.372c0.211,0.493,0.938,2.225,1.25,2.472
	c0.314,0.245,1.252,0.74,1.775,0.988c0.523,0.243,0.631,0.124,0.941-0.248c0.316-0.367,0.42-0.863,0.105-1.357
	c-0.311-0.493-1.465-2.471-1.465-2.471s-0.311-0.494,0.211-0.618c0.527-0.121,1.465-0.121,1.986-0.119
	c0.52-0.001,1.457-0.618,1.457-0.618s0,1.85-0.105,2.469c-0.102,0.619-0.211,3.336,0.207,3.831c0.416,0.493,0.938,1.357,1.246,1.481
	c0.316,0.123,1.357,0.247,1.67,0c0.314-0.246,0.209-1.235,0.209-1.851c0-0.618,0.105-3.955,0.211-4.445
	c0.105-0.495,0.314-0.495,0.627,0c0.311,0.494,2.184,3.337,2.498,3.459c0.311,0.124,1.66,1.48,2.549,1.605
	c0.887,0.127,2.551,0.62,2.969,0.373c0.418-0.246,1.459-1.604,1.877-2.097c0.416-0.495,1.564-2.839,1.98-3.086
	c0.422-0.245,1.045,0.125,1.146,0.617c0.105,0.495,0,2.716,0.211,3.335c0.205,0.616,0.516,2.102,0.932,2.47
	c0.418,0.373,1.355,1.113,1.77,1.113c0.418,0,1.357-0.616,1.254-1.729c-0.105-1.109-0.729-2.84-0.416-3.332
	c0.311-0.494,1.148-2.842,1.463-2.964c0.312-0.125,0.521-0.125,0.623,0.618c0.104,0.739,0.625,5.312,0.727,5.683
	c0.104,0.368,0.83,1.603,1.453,1.729c0.629,0.123,1.775,0.369,1.982-0.246c0.211-0.619-0.205-3.088-0.309-3.704
	c-0.104-0.619-0.205-4.2-0.416-5.312c-0.205-1.111-0.518-1.606,0.213-1.854c0.729-0.245,2.602-1.23,3.438-1.23
	c0.834,0,4.793-0.985,5.521-0.738c0.729,0.248,3.021,0.127,3.334,0.373c0.314,0.25,0.939,0.124,0.104,0.743
	c-0.836,0.615-2.504,1.479-2.504,1.479s-4.582,1.479-4.789,1.849c-0.211,0.371-2.086,1.355-2.086,1.725
	c0,0.372-0.105,1.115,0.52,1.483c0.625,0.373,1.459,0.494,2.084,0.004c0.625-0.496,3.021-1.359,3.646-1.605
	c0.625-0.247,2.711-1.85,3.438-2.218c0.732-0.373,2.605-0.863,2.715-1.481C170.342,50.866,170.652,49.882,169.924,49.261z
	 M120.428,51.944c-0.387,0.151-2.045,0.122-3.441,0.617c-1.039,0.365-1.689,0.771-1.77,0.49c-0.205-0.742-0.104-1.111,0-1.482
	c0.107-0.371,1.357-2.099,1.357-2.099s0.836-2.098,1.043-2.469c0.209-0.37,0.625,0,0.625,0s1.562,2.596,1.77,2.969
	C120.221,50.335,121.053,51.696,120.428,51.944z"/>
<path fill="#005596" d="M24.742,89.609c-0.233,0.161-0.317,0.216-0.654,0.376l-0.11,0.057l-0.056,0.029l-0.013,0.006l-0.008,0.001
	c0.177-0.56-0.397,1.259,0.397-1.255v0.001v0.005l0.002,0.02c0.005,0.053,0.028,0.139,0.039,0.208l0.109,0.447
	c0.08,0.3,0.171,0.571,0.259,0.831c0.198,0.514,0.338,0.701,0.52,0.955c0.209,0.162,0.313,0.491-0.368,0.57
	c-0.375,0.053-0.854-0.174-1.339-0.567c-0.221-0.202-0.472-0.452-0.688-0.747c-0.121-0.147-0.229-0.309-0.341-0.484l-0.165-0.272
	l-0.085-0.147l-0.044-0.089l-0.013-0.021c-0.35,1.103,0.475-1.511,0.393-1.242l0.003-0.003l0.008-0.006l0.027-0.028
	c0.089-0.085,0.529-0.472,0.768-0.647c0.243-0.292,6.97-4.699,17.964-6.349c10.894-1.917,25.387-2.061,39.711-1.655
	c14.336,0.408,28.573,1.159,39.239,1.335c10.662,0.229,17.729-0.078,17.729-0.074c-0.072-0.089,18.646,0.142,30.824-4.314
	c2.559-0.924,4.576-1.925,6.143-2.842c0.387-0.24,0.754-0.466,1.096-0.675l0.127-0.078l0.008-0.006
	c0.439,1.212,0.117,0.335,0.213,0.606h-0.018h-0.037l-0.074,0.006l-0.287,0.011l-0.547,0.028c-0.705,0.047-1.311,0.093-1.82,0.147
	c-2.037,0.221-2.582,0.333-2.055,0.047c0.533-0.265,2.193-0.76,4.617-1.055l0.115-0.014l0.029-0.004l0.016-0.001l0.008-0.001
	c-0.291-0.814,0.402,1.107,0.328,0.911l-0.047,0.035l-0.189,0.138l-0.395,0.283c-0.268,0.192-0.541,0.394-0.826,0.594
	c-0.592,0.362-1.199,0.785-1.875,1.147c-1.336,0.76-2.84,1.477-4.451,2.13c0.729-0.164-7.098,2.844-15.492,3.896
	c-8.346,1.235-16.934,1.447-16.928,1.471c0-0.006-7.047,0.244-17.605-0.002c-10.557-0.201-24.618-0.947-38.701-1.326
	c-14.068-0.378-28.242-0.197-38.678,1.685C30.955,85.338,24.956,89.374,24.742,89.609z"/>
<path d="M41.392,100.019l-1.361,2.451h-3.892L43.8,88.361h4.004l3.08,14.108h-3.911l-0.528-2.451H41.392z M45.111,92.722h-0.038
	l-2.227,4.49h3.05L45.111,92.722z"/>
<path d="M62.472,93.096c-0.588-1.011-1.719-1.554-2.972-1.554c-2.246,0-4.034,1.722-4.38,3.911
	c-0.353,2.227,0.927,3.836,3.209,3.836c1.198,0,2.487-0.58,3.399-1.497l-0.696,4.397c-1.276,0.374-2.2,0.654-3.341,0.654
	c-1.965,0-3.717-0.748-4.966-2.077c-1.331-1.403-1.751-3.236-1.419-5.332c0.305-1.928,1.328-3.78,2.895-5.164
	c1.61-1.423,3.749-2.283,5.732-2.283c1.179,0,2.223,0.262,3.237,0.711L62.472,93.096z"/>
<path d="M74.821,93.096c-0.588-1.011-1.719-1.554-2.972-1.554c-2.246,0-4.034,1.722-4.38,3.911
	c-0.353,2.227,0.927,3.836,3.209,3.836c1.197,0,2.487-0.58,3.399-1.497l-0.697,4.397c-1.275,0.374-2.199,0.654-3.34,0.654
	c-1.965,0-3.717-0.748-4.966-2.077c-1.331-1.403-1.751-3.236-1.419-5.332c0.305-1.928,1.328-3.78,2.895-5.164
	c1.61-1.423,3.749-2.283,5.732-2.283c1.179,0,2.222,0.262,3.236,0.711L74.821,93.096z"/>
<path d="M87.332,102.47h-4.565l-2.602-5.426h-0.038l-0.859,5.426H75.6l2.234-14.108h5.482c2.788,0,4.692,1.329,4.214,4.341
	c-0.308,1.946-1.66,3.63-3.718,3.985L87.332,102.47z M80.5,94.686h0.355c1.198,0,2.581-0.225,2.823-1.759
	c0.243-1.534-1.068-1.759-2.266-1.759h-0.355L80.5,94.686z"/>
<path d="M94.107,91.468l-0.374,2.357h4.135l-0.492,3.106h-4.135l-0.385,2.432h4.359l-0.492,3.106h-8.027l2.235-14.108h8.027
	l-0.492,3.106H94.107z"/>
<path d="M101.598,88.361h5.201c3.93,0,6.678,3.088,6.049,7.055c-0.628,3.967-4.373,7.054-8.283,7.054h-5.202L101.598,88.361z
	 M103.521,99.363h0.824c2.188,0,4.25-1.197,4.686-3.947c0.399-2.526-1.041-3.948-3.398-3.948h-0.86L103.521,99.363z"/>
<path d="M117.475,102.47h-3.667l2.234-14.108h3.667L117.475,102.47z"/>
<path d="M125.857,102.47h-3.668l1.742-11.002H120.9l0.492-3.106h9.73l-0.492,3.106H127.6L125.857,102.47z"/>
<path d="M136,91.468l-0.373,2.357h4.135l-0.491,3.106h-4.136l-0.385,2.432h4.359l-0.492,3.106h-8.026l2.234-14.108h8.027
	l-0.492,3.106H136z"/>
<path d="M143.49,88.361h5.201c3.93,0,6.678,3.088,6.05,7.055s-4.373,7.054-8.284,7.054h-5.201L143.49,88.361z M145.415,99.363h0.823
	c2.189,0,4.25-1.197,4.686-3.947c0.4-2.526-1.04-3.948-3.397-3.948h-0.86L145.415,99.363z"/>
<path fill="#005596" d="M171.668,79.137c1.476,0,2.652,1.2,2.652,2.7c0,1.524-1.177,2.712-2.664,2.712
	c-1.477,0-2.677-1.188-2.677-2.712c0-1.5,1.2-2.7,2.677-2.7H171.668z M171.656,79.557c-1.188,0-2.16,1.021-2.16,2.28
	c0,1.284,0.972,2.292,2.172,2.292c1.2,0.012,2.16-1.008,2.16-2.28c0-1.271-0.96-2.292-2.16-2.292H171.656z M171.152,83.409h-0.48
	v-3.013c0.252-0.035,0.492-0.071,0.853-0.071c0.456,0,0.756,0.096,0.936,0.228s0.276,0.336,0.276,0.624
	c0,0.396-0.265,0.636-0.588,0.732v0.023c0.264,0.048,0.443,0.288,0.504,0.732c0.071,0.468,0.144,0.647,0.191,0.744h-0.504
	c-0.072-0.097-0.144-0.372-0.204-0.769c-0.071-0.384-0.264-0.527-0.647-0.527h-0.336V83.409z M171.152,81.741h0.348
	c0.396,0,0.732-0.145,0.732-0.517c0-0.264-0.192-0.527-0.732-0.527c-0.156,0-0.264,0.012-0.348,0.023V81.741z"/>
<rect fill="none" width="197.5" height="122"/>
</svg>
